#!OML:ASF F:\VICON\USERDATA\INSTALL\rory3\rory3.ASF
:FULLY-SPECIFIED
:DEGREES
2461
root -1.02016 19.694 3.27911 163.815 -125.372 -163.228
lowerback 6.52218 2.15314 -5.65169
upperback -8.37829 2.00142 -0.766285
thorax -13.0031 1.39379 1.97851
lowerneck -24.4128 -6.69419 -15.2314
upperneck -1.71864 -5.66384 14.6348
head 4.18573 -1.99304 6.57271
rclavicle -7.55382e-015 -1.90833e-014
rhumerus 93.1217 -25.9537 -35.1662
rradius 28.3675
rwrist 9.87258
rhand -29.52 0.78681
rfingers 7.12502
rthumb -2.85392 -29.1738
lclavicle -7.55382e-015 -1.90833e-014
lhumerus 98.5271 24.7401 45.5876
lradius 19.4724
lwrist -0.767741
lhand -15.3465 26.0549
lfingers 7.12502
lthumb 10.8305 55.7556
rfemur -3.4563 -3.47897 10.3996
rtibia 27.1204
rfoot -15.673 -32.1235
rtoes 34.4851
lfemur -17.4792 -16.9604 -2.96577
ltibia 26.2017
lfoot -14.1315 16.8102
ltoes -15.6088
2462
root -1.00932 19.6947 3.30905 163.265 -125.059 -162.705
lowerback 6.55226 2.19489 -6.03474
upperback -8.3219 1.99642 -0.872457
thorax -12.9743 1.41896 2.0767
lowerneck -24.3034 -6.67108 -15.2243
upperneck -1.77321 -5.64496 14.5951
head 4.14839 -1.99083 6.56069
rclavicle 1.13307e-014 -3.57812e-014
rhumerus 92.8088 -26.1493 -34.658
rradius 28.5691
rwrist 9.72374
rhand -29.3622 0.27419
rfingers 7.12502
rthumb -2.70152 -29.6884
lclavicle 1.13307e-014 -3.57812e-014
lhumerus 98.7436 24.4467 46.0939
lradius 19.8279
lwrist -1.10757
lhand -15.4323 25.4367
lfingers 7.12502
lthumb 10.7477 55.1418
rfemur -3.4852 -3.49229 9.9323
rtibia 27.2145
rfoot -15.1163 -32.1184
rtoes 34.8647
lfemur -16.8543 -17.6353 -3.12636
ltibia 25.9732
lfoot -13.6302 17.6778
ltoes -15.1947
2463
root -0.996769 19.6874 3.345 161.996 -124.724 -161.598
lowerback 6.79443 2.28504 -6.63261
upperback -8.2575 2.00494 -1.04154
thorax -13.0815 1.46881 2.2154
lowerneck -23.9899 -6.59736 -15.2399
upperneck -1.79492 -5.57918 14.5184
head 4.08463 -1.97407 6.54614
rclavicle -2.94201e-014 -2.06736e-014
rhumerus 92.5099 -26.2027 -34.1216
rradius 28.6139
rwrist 9.80725
rhand -28.9526 0.189595
rfingers 7.12502
rthumb -2.30593 -29.7777
lclavicle -2.94201e-014 -2.06736e-014
lhumerus 98.6476 24.1145 46.492
lradius 20.2817
lwrist -1.57005
lhand -15.5209 25.1704
lfingers 7.12502
lthumb 10.6624 54.8799
rfemur -3.26261 -3.75105 9.03189
rtibia 27.3169
rfoot -13.9004 -31.9549
rtoes 34.642
lfemur -15.848 -18.1249 -3.83831
ltibia 25.7553
lfoot -12.9949 18.5291
ltoes -15.7402
2464
root -0.983535 19.6778 3.37993 161.095 -124.502 -160.846
lowerback 6.95936 2.29005 -6.99627
upperback -8.16546 1.93223 -1.23111
thorax -13.0841 1.45418 2.21993
lowerneck -23.9407 -6.52057 -15.3176
upperneck -1.70161 -5.48719 14.7246
head 4.10712 -1.91961 6.64017
rclavicle -2.78299e-015 -2.06736e-014
rhumerus 92.6153 -26.2042 -34.2459
rradius 28.4425
rwrist 10.3076
rhand -28.53 0.320357
rfingers 7.12502
rthumb -1.89775 -29.6509
lclavicle -2.78299e-015 -2.06736e-014
lhumerus 98.6969 23.9015 46.738
lradius 20.5879
lwrist -1.89799
lhand -15.6644 24.828
lfingers 7.12502
lthumb 10.5239 54.5446
rfemur -3.07062 -4.07636 8.35991
rtibia 27.4165
rfoot -12.5701 -31.7528
rtoes 33.5733
lfemur -15.0666 -18.4428 -4.34899
ltibia 25.5686
lfoot -12.1551 19.1195
ltoes -16.3072
2465
root -0.966706 19.6708 3.40741 161.718 -124.269 -161.587
lowerback 6.931 2.18832 -6.60969
upperback -8.1425 1.85364 -1.20134
thorax -13.008 1.38107 2.05473
lowerneck -23.977 -6.52478 -15.4624
upperneck -1.65718 -5.46699 14.9147
head 4.13699 -1.8983 6.73109
rclavicle 5.30755e-014 3.97569e-015
rhumerus 92.524 -26.3457 -34.0611
rradius 28.3779
rwrist 10.1269
rhand -28.3618 0.392538
rfingers 7.12502
rthumb -1.73535 -29.5802
lclavicle 5.30755e-014 3.97569e-015
lhumerus 98.9604 23.681 47.1129
lradius 20.75
lwrist -2.2575
lhand -15.8483 24.2404
lfingers 7.12502
lthumb 10.3465 53.9659
rfemur -3.13746 -4.17463 8.75717
rtibia 27.5335
rfoot -11.8572 -31.5633
rtoes 32.3711
lfemur -14.8152 -18.1129 -3.80151
ltibia 25.3856
lfoot -11.0038 18.8504
ltoes -16.2537
2466
root -0.94617 19.6615 3.43753 162.38 -124.092 -162.335
lowerback 6.94045 2.08402 -6.25276
upperback -8.18219 1.76633 -1.11956
thorax -13.034 1.31285 1.9612
lowerneck -23.8734 -6.51708 -15.5426
upperneck -1.60726 -5.44556 14.8295
head 4.13139 -1.89596 6.71822
rclavicle -7.09661e-014 -7.95139e-015
rhumerus 92.1994 -26.4747 -33.5397
rradius 28.4473
rwrist 9.68375
rhand -27.9629 0.309074
rfingers 7.12502
rthumb -1.35004 -29.6664
lclavicle -7.09661e-014 -7.95139e-015
lhumerus 99.1343 23.3537 47.6353
lradius 20.9133
lwrist -2.80148
lhand -16.1586 23.6484
lfingers 7.12502
lthumb 10.0471 53.3886
rfemur -3.22232 -4.41309 9.10163
rtibia 27.6196
rfoot -11.2202 -31.3319
rtoes 31.3521
lfemur -14.6064 -17.6774 -3.30326
ltibia 25.2445
lfoot -9.84252 18.6001
ltoes -15.6802
2467
root -0.928836 19.6475 3.4729 161.572 -124.004 -161.667
lowerback 7.17242 2.07173 -6.70314
upperback -8.13379 1.6615 -1.21747
thorax -13.1346 1.30014 2.11807
lowerneck -23.615 -6.44514 -15.5083
upperneck -1.75459 -5.3816 14.7544
head 4.03527 -1.8793 6.69535
rclavicle 9.30312e-014 1.74931e-014
rhumerus 91.9384 -26.5426 -33.0598
rradius 28.504
rwrist 9.43262
rhand -27.4394 0.108198
rfingers 7.12502
rthumb -0.844466 -29.8699
lclavicle 9.30312e-014 1.74931e-014
lhumerus 99.0359 23.0792 48.0008
lradius 21.233
lwrist -3.25565
lhand -16.3723 23.4742
lfingers 7.12502
lthumb 9.84097 53.2243
rfemur -2.95423 -4.70762 8.46755
rtibia 27.6309
rfoot -10.3263 -30.9904
rtoes 30.2161
lfemur -13.9865 -17.4496 -3.87416
ltibia 25.2032
lfoot -8.55706 18.7453
ltoes -15.9898
2468
root -0.914 19.6344 3.50566 161.488 -123.816 -161.641
lowerback 7.19746 2.03757 -6.88997
upperback -8.16223 1.59083 -1.16941
thorax -13.1893 1.28877 2.28687
lowerneck -23.3075 -6.38921 -15.6165
upperneck -1.99253 -5.31287 14.8406
head 3.91574 -1.85353 6.7515
rclavicle -5.42682e-014 -4.45278e-014
rhumerus 92.0843 -26.3793 -33.254
rradius 28.4015
rwrist 9.95245
rhand -27.205 0.163981
rfingers 7.12502
rthumb -0.61807 -29.8149
lclavicle -5.42682e-014 -4.45278e-014
lhumerus 98.8264 22.9014 48.1091
lradius 21.3952
lwrist -3.3954
lhand -16.4426 23.3639
lfingers 7.12502
lthumb 9.77315 53.1171
rfemur -2.86866 -4.63176 8.37982
rtibia 27.6299
rfoot -10.0048 -30.7268
rtoes 29.3034
lfemur -13.6311 -17.3695 -3.93366
ltibia 25.2069
lfoot -7.21256 18.7468
ltoes -16.0122
2469
root -0.892556 19.623 3.53898 162.959 -123.528 -163.161
lowerback 7.02163 1.90485 -6.16063
upperback -8.22824 1.545 -0.959167
thorax -13.1186 1.21184 2.12438
lowerneck -23.3673 -6.39754 -15.6536
upperneck -1.99984 -5.31399 14.9376
head 3.92828 -1.84763 6.79028
rclavicle -6.75868e-014 -2.38542e-014
rhumerus 91.5182 -26.6232 -32.4315
rradius 28.7349
rwrist 9.18901
rhand -27.4639 0.15761
rfingers 7.12502
rthumb -0.868141 -29.8204
lclavicle -6.75868e-014 -2.38542e-014
lhumerus 98.8184 22.7972 48.0936
lradius 21.4029
lwrist -3.335
lhand -16.427 22.8675
lfingers 7.12502
lthumb 9.78819 52.6201
rfemur -3.07735 -4.63536 9.31477
rtibia 27.6377
rfoot -9.74155 -30.5933
rtoes 28.4718
lfemur -13.7344 -17.0649 -2.91231
ltibia 25.2256
lfoot -5.73838 18.3032
ltoes -14.798
2470
root -0.869912 19.6108 3.57886 163.729 -123.208 -163.993
lowerback 6.88257 1.86924 -5.72803
upperback -8.18101 1.57844 -0.867943
thorax -12.9589 1.18958 1.9823
lowerneck -23.6888 -6.41494 -15.3961
upperneck -1.91012 -5.35732 14.7484
head 3.99122 -1.86877 6.67763
rclavicle 2.20651e-014 -2.38542e-014
rhumerus 91.3253 -26.819 -32.2092
rradius 28.8653
rwrist 8.75669
rhand -27.7525 0.400385
rfingers 7.12502
rthumb -1.14683 -29.5763
lclavicle 2.20651e-014 -2.38542e-014
lhumerus 98.9341 22.6993 48.1198
lradius 21.4494
lwrist -3.2522
lhand -16.0879 22.5717
lfingers 7.12502
lthumb 10.1153 52.3085
rfemur -3.15521 -4.73527 9.76449
rtibia 27.5981
rfoot -9.18439 -30.3779
rtoes 27.7454
lfemur -13.6317 -16.7612 -2.43817
ltibia 25.3225
lfoot -4.16146 18.0663
ltoes -13.829
2471
root -0.84929 19.5971 3.62365 163.626 -122.994 -163.971
lowerback 6.88978 1.85645 -5.75758
upperback -8.1929 1.55707 -0.853642
thorax -12.9776 1.18337 2.018
lowerneck -23.6158 -6.33312 -15.3209
upperneck -1.92599 -5.27706 14.7067
head 3.96055 -1.83508 6.66093
rclavicle 5.54609e-014 7.95139e-015
rhumerus 91.393 -26.6074 -32.3627
rradius 28.7903
rwrist 8.65368
rhand -27.984 0.545345
rfingers 7.12502
rthumb -1.37044 -29.43
lclavicle 5.54609e-014 7.95139e-015
lhumerus 98.52 22.6042 47.7782
lradius 21.6347
lwrist -2.96957
lhand -15.7827 22.5053
lfingers 7.12502
lthumb 10.4098 52.2276
rfemur -3.02531 -4.55863 9.65996
rtibia 27.5742
rfoot -8.92916 -30.0789
rtoes 27.3237
lfemur -13.2983 -16.6189 -2.64387
ltibia 25.4547
lfoot -2.1959 17.919
ltoes -14.2703
2472
root -0.829552 19.586 3.66817 163.601 -122.825 -164.038
lowerback 6.89234 1.83145 -5.78328
upperback -8.22014 1.52184 -0.815959
thorax -13.0107 1.17221 2.07958
lowerneck -23.7975 -6.2706 -15.2211
upperneck -1.4708 -5.21653 14.5741
head 4.1085 -1.80349 6.60656
rclavicle -9.54166e-015 2.22639e-014
rhumerus 91.4551 -26.3937 -32.5721
rradius 28.6816
rwrist 8.60712
rhand -28.45 0.5348
rfingers 7.12502
rthumb -1.82052 -29.4372
lclavicle -9.54166e-015 2.22639e-014
lhumerus 98.1744 22.4817 47.5621
lradius 21.8035
lwrist -2.607
lhand -15.1955 22.3488
lfingers 7.12502
lthumb 10.9761 52.0419
rfemur -2.93778 -4.44533 9.58303
rtibia 27.6295
rfoot -8.65343 -29.8006
rtoes 26.4807
lfemur -12.9648 -16.4584 -2.84513
ltibia 25.5425
lfoot 0.099493 17.6187
ltoes -15.0265
2473
root -0.807916 19.5719 3.71426 163.626 -122.532 -164.192
lowerback 6.93211 1.84648 -5.80106
upperback -8.20845 1.54956 -0.716017
thorax -13.0287 1.19381 2.19331
lowerneck -24.6117 -6.27085 -14.8571
upperneck -0.0927835 -5.24649 13.9854
head 4.61627 -1.81541 6.3441
rclavicle -2.32578e-014 -2.38542e-015
rhumerus 91.0929 -26.4887 -31.8949
rradius 28.7556
rwrist 7.89723
rhand -29.0642 0.515414
rfingers 7.12502
rthumb -2.41376 -29.4507
lclavicle -2.32578e-014 -2.38542e-015
lhumerus 97.8916 22.4775 47.2536
lradius 21.9436
lwrist -1.96238
lhand -14.2398 22.5721
lfingers 7.12502
lthumb 11.8978 52.2141
rfemur -2.92848 -4.58017 9.5713
rtibia 27.7279
rfoot -7.79832 -29.5839
rtoes 25.0995
lfemur -12.5869 -16.2268 -2.97967
ltibia 25.6037
lfoot 2.26036 17.336
ltoes -15.0677
2474
root -0.786259 19.5567 3.76359 163.676 -122.254 -164.337
lowerback 6.90341 1.86015 -5.7645
upperback -8.19259 1.57927 -0.684039
thorax -12.994 1.20557 2.20363
lowerneck -24.5255 -6.29851 -14.9077
upperneck -0.339543 -5.28221 14.1631
head 4.54279 -1.8271 6.40776
rclavicle 1.1609e-013 5.56597e-014
rhumerus 91.2087 -26.3198 -32.4233
rradius 28.7693
rwrist 8.19531
rhand -29.6646 1.0128
rfingers 7.12502
rthumb -2.99355 -28.9459
lclavicle 1.1609e-013 5.56597e-014
lhumerus 97.7326 22.3782 47.0679
lradius 22.0521
lwrist -1.68451
lhand -13.2564 22.8036
lfingers 7.12502
lthumb 12.8461 52.3883
rfemur -2.91796 -4.53727 9.57901
rtibia 27.8042
rfoot -7.51826 -29.4145
rtoes 24.4813
lfemur -12.2666 -16.1105 -3.13183
ltibia 25.7026
lfoot 3.78001 17.4197
ltoes -12.0971
